<svg width="352" height="352" viewBox="0 0 352 352" fill="none" xmlns="http://www.w3.org/2000/svg">
<path d="M170.446 20.1012C172.479 15.1289 179.521 15.1289 181.554 20.1012L231.754 142.875C231.959 143.377 232.232 143.849 232.564 144.278L313.789 249.14C317.079 253.387 313.558 259.485 308.236 258.759L176.81 240.847C176.273 240.773 175.727 240.773 175.19 240.847L43.7645 258.759C38.4419 259.485 34.9212 253.387 38.2108 249.14L119.436 144.278C119.768 143.849 120.041 143.377 120.246 142.875L170.446 20.1012Z" fill="#919CFF"/>
<path d="M182.432 210.198C182.432 208.214 182.944 207.062 183.968 206.742L189.056 205.398V153.75L182.624 152.214C182.624 150.486 183.168 149.302 184.256 148.662H208.832C212.992 148.662 216.448 149.398 219.2 150.87C222.016 152.278 224.128 154.198 225.536 156.63C227.008 158.998 227.744 161.622 227.744 164.502C227.744 168.214 226.56 171.67 224.192 174.87C221.888 178.07 218.656 180.438 214.496 181.974C217.056 186.262 219.68 190.23 222.368 193.878C225.12 197.526 227.712 200.63 230.144 203.19C232.64 205.686 234.848 207.414 236.768 208.374C236.064 209.142 235.2 209.814 234.176 210.39C233.216 210.966 232.192 211.254 231.104 211.254C229.312 211.254 227.104 210.166 224.48 207.99C221.856 205.75 219.104 202.55 216.224 198.39C213.344 194.23 210.592 189.206 207.968 183.318C207.136 183.382 206.272 183.414 205.376 183.414C204.096 183.414 202.72 183.35 201.248 183.222C199.776 183.094 198.368 182.87 197.024 182.55V205.206L204.224 206.646C204.224 207.606 204.096 208.342 203.84 208.854C203.648 209.366 203.2 209.814 202.496 210.198H182.432ZM205.664 152.886C204.064 152.886 202.528 152.982 201.056 153.174C199.584 153.366 198.24 153.59 197.024 153.846V178.134C198.112 178.39 199.392 178.582 200.864 178.71C202.336 178.838 203.808 178.902 205.28 178.902C209.952 178.902 213.408 177.59 215.648 174.966C217.952 172.342 219.104 169.27 219.104 165.75C219.104 161.59 217.888 158.422 215.456 156.246C213.088 154.006 209.824 152.886 205.664 152.886Z" fill="black"/>
<path d="M169.568 210.198C169.568 208.214 169.056 207.062 168.032 206.742L163.04 205.398V153.75L169.568 152.214C169.568 151.318 169.44 150.614 169.184 150.102C168.928 149.59 168.448 149.11 167.744 148.662H127.328V160.758C129.312 160.758 130.496 160.214 130.88 159.126L132.992 152.694L155.168 153.846V176.886H137.12L135.872 170.838C135.232 170.838 134.592 170.934 133.952 171.126C133.312 171.318 132.768 171.702 132.32 172.278V185.814C132.768 186.39 133.312 186.774 133.952 186.966C134.592 187.094 135.232 187.158 135.872 187.158L137.216 181.11H155.168V204.63L130.304 206.166L128 195.99C127.104 195.99 126.4 196.118 125.888 196.374C125.312 196.63 124.8 197.014 124.352 197.526V210.198H169.568Z" fill="white"/>
</svg>
